<svg width="80" height="81" viewBox="0 0 80 81" fill="none" xmlns="http://www.w3.org/2000/svg">
<path d="M71.0375 58.3017C73.5544 56.1498 75.1543 52.9551 75.1543 49.3919C75.1543 42.9277 69.8952 37.6686 63.431 37.6686C56.9677 37.6686 51.7094 42.9261 51.7077 49.3889C51.7061 42.9261 46.4477 37.6686 39.9844 37.6686C33.5201 37.6686 28.261 42.9277 28.261 49.3919C28.261 52.9602 29.8654 56.1589 32.3885 58.3109C30.8673 59.1162 29.4857 60.155 28.2912 61.3806C27.0748 60.1316 25.6754 59.0942 24.1508 58.2959C26.6637 56.1442 28.261 52.9519 28.261 49.3919C28.261 42.9277 23.002 37.6686 16.5377 37.6686C10.0735 37.6686 4.81441 42.9277 4.81441 49.3919C4.81441 52.9551 6.41436 56.1497 8.93121 58.3017C3.73667 61.0321 1.79887e-08 66.5297 1.79887e-08 72.995V77.6844C-0.000156289 78.9792 1.01834 80.029 2.31318 80.029C3.20366 80.029 76.1353 80.029 77.6554 80.029C78.9502 80.029 80 78.9792 80 77.6844V72.995C80 66.5944 76.2896 61.0624 71.0375 58.3017ZM63.4309 42.3579C67.3095 42.3579 70.4648 45.5135 70.4648 49.3919C70.4648 53.2705 67.3093 56.4259 63.4309 56.4259C59.5523 56.4259 56.3969 53.2703 56.3969 49.3919C56.3969 45.5135 59.5524 42.3579 63.4309 42.3579ZM51.7077 49.3974C51.7093 52.9552 53.3061 56.1451 55.8178 58.2959C54.293 59.0942 52.8936 60.1314 51.6774 61.3806C50.4829 60.1552 49.1014 59.1162 47.5803 58.3109C50.1021 56.1601 51.706 52.9635 51.7077 49.3974ZM39.9842 42.3579C43.8628 42.3579 47.0182 45.5135 47.0182 49.3919C47.0182 53.2705 43.8627 56.4259 39.9842 56.4259C36.1056 56.4259 32.9503 53.2703 32.9503 49.3919C32.9501 45.5135 36.1056 42.3579 39.9842 42.3579ZM16.5374 42.3579C20.416 42.3579 23.5714 45.5135 23.5714 49.3919C23.5714 53.2705 20.4159 56.4259 16.5374 56.4259C12.659 56.4259 9.50345 53.2703 9.50345 49.3919C9.50345 45.5135 12.6588 42.3579 16.5374 42.3579ZM23.6028 72.995V75.3396H4.65779V72.995C4.65779 66.5556 10.098 61.1154 16.5374 61.1154C20.0091 61.1154 23.26 62.6411 25.4766 65.2541C24.2613 67.5658 23.6028 70.2004 23.6028 72.995ZM51.7388 75.3398H28.2607V72.9952C28.2607 66.4447 33.5198 61.1155 39.9841 61.1155C46.4483 61.1155 51.7386 66.4448 51.7386 72.9952V75.3398H51.7388ZM75.3419 75.3398H56.3969V72.9952C56.3969 70.2006 55.707 67.566 54.4918 65.2541C56.7083 62.6411 59.9591 61.1154 63.431 61.1154C69.8704 61.1154 75.3419 66.5556 75.3419 72.995V75.3398Z" fill="white"/>
<path d="M54.8732 10.9253L45.8818 9.61873L41.8533 1.31837C40.9995 -0.440551 38.4872 -0.438362 37.6346 1.31837L33.6061 9.61873L24.6148 10.9253C22.696 11.2042 21.9257 13.57 23.3155 14.9246L29.8285 21.2734L28.291 30.2383C27.9632 32.1491 29.9754 33.6131 31.693 32.7099L39.7439 28.4773L47.7948 32.7099C49.5092 33.6114 51.5256 32.1547 51.1968 30.2383L49.6594 21.2734L56.1727 14.9246C57.5609 13.5709 56.7934 11.2043 54.8732 10.9253ZM45.5032 18.7757C44.9507 19.3143 44.6985 20.0903 44.8289 20.8509L45.7717 26.3482L40.835 23.7529C40.152 23.3939 39.3358 23.3939 38.6529 23.7529L33.7161 26.3482L34.659 20.8509C34.7893 20.0903 34.5372 19.3143 33.9847 18.7757L29.9907 14.8824L35.5101 14.0805C36.2791 13.9687 36.9429 13.4831 37.2823 12.7839L39.7438 7.71194L42.2055 12.7839C42.5448 13.4831 43.2085 13.9687 43.9775 14.0805L49.4972 14.8825L45.5032 18.7757Z" fill="white"/>
</svg>
