<svg width="80" height="81" viewBox="0 0 80 81" fill="none" xmlns="http://www.w3.org/2000/svg">
<path d="M1.9651 49.8575C2.40356 50.1626 2.86697 50.4302 3.35039 50.6575C3.92637 50.9521 4.89167 51.4455 4.95967 51.7908C5.04355 52.2466 4.98874 52.7171 4.80234 53.1414C4.60368 53.5681 4.39569 53.9347 4.21569 54.2507C3.72771 55.1133 2.9104 56.5586 4.14236 57.5653C4.43035 57.8319 4.92767 58.2173 5.38099 58.5652C5.04727 59.1487 4.89632 59.819 4.94767 60.4892C5.01815 61.0168 5.30448 61.4914 5.73831 61.7998C6.0343 62.0091 6.35029 62.1905 6.66228 62.3678C7.45026 62.8171 7.75825 63.0264 7.86224 63.4438C7.93632 63.9804 7.89079 64.5267 7.72892 65.0437C7.65025 65.3997 7.57425 65.757 7.52892 66.1103C7.39652 67.3254 7.54664 68.5547 7.96757 69.7022C8.56717 71.8202 10.4826 73.2959 12.6834 73.3354C13.0509 73.3344 13.4172 73.2955 13.7767 73.2194C17.5856 72.3166 21.3389 71.1934 25.0177 69.8556C28.0216 71.6182 29.9189 76.978 30.4135 78.9899C30.5612 79.5847 31.0953 80.0022 31.7082 80.0019L65.1738 79.9086C65.5979 79.9078 65.9963 79.7052 66.2469 79.363C66.4975 79.0209 66.5703 78.5799 66.4431 78.1753C66.1134 77.2719 65.6588 76.4192 65.0925 75.642C64.7728 75.1811 64.4846 74.6992 64.2298 74.1994C63.6264 72.9782 63.1229 71.7101 62.7245 70.4075C61.9735 67.8589 61.4497 65.2488 61.1593 62.6078C61.1155 62.1231 60.8112 61.7007 60.3653 61.5058C59.9194 61.3109 59.4027 61.3745 59.0173 61.6716C58.6319 61.9687 58.439 62.4523 58.514 62.9331C58.8223 65.7324 59.3787 68.4987 60.1766 71.1995C60.6153 72.6327 61.1687 74.0283 61.8312 75.3727C62.1354 75.9765 62.4807 76.5588 62.8645 77.1153L62.9539 77.2487L32.7161 77.3353C31.831 74.1725 30.2246 71.258 28.023 68.8209L29.2229 68.4009C30.1162 68.0889 30.7895 67.8543 31.1349 67.7436C36.8467 65.937 39.7026 63.3358 39.6253 60.0105C39.6263 59.6552 39.4818 59.315 39.2254 59.0691C38.9689 58.8233 38.6229 58.6932 38.268 58.7092C37.532 58.7267 36.9495 59.3373 36.9667 60.0732C36.9987 61.4452 35.8747 63.4464 30.3322 65.1997C29.9709 65.3157 29.2749 65.5584 28.3509 65.881C27.3603 66.2277 26.1003 66.6677 24.7111 67.1396H24.7017C20.9496 68.515 17.1211 69.6725 13.2354 70.6062C11.9921 70.8458 10.7812 70.0615 10.4915 68.8289C10.2067 68.0704 10.0995 67.2567 10.1782 66.4503C10.2128 66.1703 10.2768 65.893 10.3382 65.6144C10.6098 64.6921 10.6497 63.7171 10.4542 62.7758C10.0651 61.5528 9.16476 60.5586 7.98624 60.0505L7.70892 59.8919C7.85288 59.6012 8.0248 59.3252 8.22223 59.0679C8.4459 58.7845 8.54508 58.4225 8.49708 58.0646C8.44909 57.7068 8.25802 57.3837 7.96757 57.1693C7.64758 56.9346 6.89294 56.3693 6.34096 55.924C6.40496 55.808 6.47429 55.68 6.54095 55.564C6.75028 55.1973 6.98894 54.7707 7.22226 54.2774C7.64418 53.3428 7.76846 52.3011 7.57825 51.2935C7.25826 49.6669 5.70098 48.8695 4.56368 48.2882C4.18124 48.1072 3.81464 47.8945 3.46772 47.6522C3.18182 47.4602 2.91405 47.2424 2.66774 47.0016C2.66774 46.8003 2.88373 46.3123 3.8997 45.0737C6.28742 42.0009 8.33363 38.6775 10.0022 35.162C10.317 34.611 10.494 33.9921 10.5182 33.358C10.3804 32.0179 9.67025 30.8026 8.57022 30.0248C8.03024 29.5301 7.52226 29.0635 7.46359 28.6328C7.4725 28.3169 7.54316 28.0057 7.67158 27.7169C7.88891 27.1449 8.13957 26.5849 8.39156 26.0236C8.93828 24.8963 9.37496 23.7189 9.69552 22.5077L9.82885 21.9397C10.1116 20.6067 10.4758 19.2923 10.9195 18.0038C11.9705 15.1029 13.5978 12.4448 15.7033 10.1894C18.2539 7.49083 22.2685 5.58156 27.655 4.51093C31.7752 3.60642 35.9559 3.00395 40.1639 2.70832C42.2626 2.59469 44.3674 2.71408 46.4397 3.0643C47.1561 3.17168 47.8271 2.68747 47.951 1.9738C48.0749 1.26012 47.6063 0.578075 46.8957 0.437719C44.6272 0.0521977 42.3228 -0.0792766 40.0252 0.0457315C35.6868 0.34664 31.3763 0.965167 27.1283 1.89634C21.1165 3.0963 16.7473 5.20424 13.7647 8.35614C11.412 10.8736 9.59292 13.8411 8.41689 17.0799C7.93673 18.4735 7.54223 19.8953 7.2356 21.3371L7.10227 21.8997C6.8177 22.9454 6.43606 23.9623 5.9623 24.937C5.69565 25.5449 5.41832 26.1529 5.17966 26.7822C4.87269 27.4832 4.75103 28.2513 4.82634 29.0128C5.09539 30.2066 5.7855 31.2636 6.77028 31.9901C7.42226 32.5887 7.85024 33.01 7.85558 33.3767C7.80731 33.5798 7.73056 33.7751 7.62758 33.9567C6.0303 37.3218 4.07221 40.5035 1.78777 43.4457C0.823798 44.6203 -0.185504 45.9896 0.0291557 47.3589C0.311558 48.4186 1.00956 49.3194 1.9651 49.8575Z" fill="white"/>
<path d="M14.8914 23.7276L15.0247 23.1343C15.2584 22.0258 15.5553 20.9316 15.914 19.8571C16.717 17.6312 17.9614 15.5904 19.5726 13.8573C21.3005 12.228 23.4156 11.0665 25.7177 10.4827C26.1825 10.3517 26.5401 9.97966 26.6527 9.51005C26.7652 9.04043 26.615 8.54668 26.26 8.2193C25.905 7.89191 25.4007 7.78206 24.9417 7.93213C22.1943 8.64611 19.6774 10.0563 17.634 12.0267C15.7772 14.0227 14.3428 16.3731 13.4167 18.9371C13.0167 20.1206 12.6868 21.3267 12.4288 22.549L12.2955 23.1263C12.1291 23.8431 12.5748 24.5592 13.2914 24.7263C13.3906 24.7496 13.4922 24.7612 13.5941 24.7609C14.2142 24.7601 14.7518 24.3318 14.8914 23.7276Z" fill="white"/>
<path d="M12.0021 29.3368C12.7385 29.3368 13.3354 28.7399 13.3354 28.0035C13.3354 27.2672 12.7385 26.6702 12.0021 26.6702C11.2658 26.6702 10.6688 27.2672 10.6688 28.0035C10.6688 28.7399 11.2658 29.3368 12.0021 29.3368Z" fill="white"/>
<path d="M36.0014 26.9502C35.91 31.4957 37.5163 35.9119 40.5066 39.3365C41.4478 40.3145 42.474 41.2068 43.5731 42.0031C45.5237 43.5111 47.3717 44.9524 47.8623 46.9576C46.3391 47.5605 45.3374 49.0313 45.3344 50.6695V53.3361C45.3414 55.0251 46.4086 56.5277 48.001 57.0906V57.336C48.001 60.2814 50.3887 62.6691 53.3342 62.6691C56.2796 62.6691 58.6673 60.2814 58.6673 57.336V57.0906C60.2597 56.5277 61.3269 55.0251 61.3339 53.3361V50.6695C61.3301 49.03 60.326 47.5588 58.8007 46.9576C59.29 44.9577 61.1393 43.5111 63.0899 42.0031C64.1887 41.2065 65.2149 40.3141 66.1564 39.3365C69.1478 35.9123 70.7559 31.4962 70.667 26.9502C70.6298 17.347 62.9355 9.52853 53.3342 9.33746C43.7328 9.52853 36.0386 17.347 36.0014 26.9502ZM49.3343 29.3368H48.001C47.2646 29.3368 46.6677 28.7399 46.6677 28.0035C46.6677 27.2672 47.2646 26.6703 48.001 26.6703C48.7374 26.6703 49.3343 27.2672 49.3343 28.0035V29.3368ZM54.6675 46.6696H52.0009V32.0034H54.6675V46.6696ZM53.3342 60.0026C51.8614 60.0026 50.6676 58.8087 50.6676 57.336H56.0007C56.0007 58.8087 54.8069 60.0026 53.3342 60.0026ZM58.6673 53.3361C58.6673 54.0724 58.0704 54.6694 57.334 54.6694H49.3343C48.5979 54.6694 48.001 54.0724 48.001 53.3361V50.6695C48.001 49.9332 48.5979 49.3362 49.3343 49.3362H57.334C58.0704 49.3362 58.6673 49.9332 58.6673 50.6695V53.3361ZM68.0004 26.9916C68.0834 30.863 66.7226 34.6267 64.1832 37.5499C63.3469 38.4074 62.4382 39.1912 61.4672 39.8925C59.8952 40.9877 58.5011 42.3183 57.334 43.8377V32.0034H58.6673C60.8764 32.0034 62.6672 30.2126 62.6672 28.0035C62.6672 25.7945 60.8764 24.0037 58.6673 24.0037C56.4583 24.0037 54.6675 25.7945 54.6675 28.0035V29.3368H52.0009V28.0035C52.0009 25.7945 50.2101 24.0037 48.001 24.0037C45.7919 24.0037 44.0011 25.7945 44.0011 28.0035C44.0011 30.2126 45.7919 32.0034 48.001 32.0034H49.3343V43.8377C48.1694 42.3191 46.7776 40.9888 45.2077 39.8938C44.2364 39.192 43.3273 38.4078 42.4905 37.5499C39.9484 34.6278 38.5857 30.8638 38.668 26.9916C38.8013 18.8665 45.5104 12.004 53.3342 12.004C61.1579 12.004 67.8737 18.8665 68.0004 26.9916ZM57.334 29.3368V28.0035C57.334 27.2672 57.931 26.6703 58.6673 26.6703C59.4037 26.6703 60.0006 27.2672 60.0006 28.0035C60.0006 28.7399 59.4037 29.3368 58.6673 29.3368H57.334Z" fill="white"/>
<path d="M74.6668 28.0035H78.6667C79.4031 28.0035 80 27.4066 80 26.6702C80 25.9338 79.4031 25.3369 78.6667 25.3369H74.6668C73.9305 25.3369 73.3336 25.9338 73.3336 26.6702C73.3336 27.4066 73.9305 28.0035 74.6668 28.0035Z" fill="white"/>
<path d="M68.4177 12.92C68.7717 12.9203 69.1114 12.7798 69.3617 12.5294L72.1896 9.70012C72.5362 9.36537 72.6752 8.86964 72.5532 8.40349C72.4311 7.93733 72.0671 7.57328 71.6009 7.45126C71.1348 7.32925 70.6391 7.46825 70.3043 7.81485L67.4751 10.6428C67.0929 11.0239 66.9783 11.5979 67.1847 12.0967C67.3912 12.5954 67.8779 12.9204 68.4177 12.92Z" fill="white"/>
<path d="M53.3341 6.67085C54.0705 6.67085 54.6674 6.07392 54.6674 5.33756V1.33769C54.6674 0.60133 54.0705 0.00439453 53.3341 0.00439453C52.5978 0.00439453 52.0009 0.60133 52.0009 1.33769V5.33756C52.0009 6.07392 52.5978 6.67085 53.3341 6.67085Z" fill="white"/>
<path d="M39.1932 12.5294C39.4436 12.2793 39.5843 11.9399 39.5843 11.5861C39.5843 11.2322 39.4436 10.8928 39.1932 10.6428L36.364 7.81485C36.0292 7.46825 35.5335 7.32925 35.0674 7.45126C34.6012 7.57328 34.2372 7.93733 34.1151 8.40349C33.9931 8.86964 34.1321 9.36537 34.4787 9.70012L37.3066 12.5294C37.5567 12.7797 37.8961 12.9204 38.2499 12.9204C38.6038 12.9204 38.9432 12.7797 39.1932 12.5294Z" fill="white"/>
<path d="M28.0016 25.3369C27.2653 25.3369 26.6683 25.9338 26.6683 26.6702C26.6683 27.4066 27.2653 28.0035 28.0016 28.0035H32.0015C32.7379 28.0035 33.3348 27.4066 33.3348 26.6702C33.3348 25.9338 32.7379 25.3369 32.0015 25.3369H28.0016Z" fill="white"/>
</svg>
