<svg width="80" height="65" viewBox="0 0 80 65" fill="none" xmlns="http://www.w3.org/2000/svg">
<path d="M18.775 32.5415C11.2628 32.5415 5.15137 38.653 5.15137 46.1652C5.15137 53.6774 11.2628 59.7888 18.775 59.7888C26.2866 59.7888 32.3981 53.6774 32.3981 46.1652C32.3981 38.653 26.2866 32.5415 18.775 32.5415ZM18.775 34.917C24.032 34.917 28.4564 38.5425 29.6838 43.4241C29.0955 45.7715 27.7423 47.8967 25.8478 49.4318C23.8556 51.0455 21.344 51.9342 18.7756 51.9342C16.2067 51.9342 13.6951 51.0455 11.7023 49.4318C9.80774 47.8967 8.45398 45.7715 7.8656 43.4241C9.09302 38.5425 13.5175 34.917 18.775 34.917ZM18.775 57.4133C13.4839 57.4133 9.03748 53.7408 7.84363 48.8116C8.52234 49.7247 9.3158 50.5554 10.2075 51.2775C12.6215 53.233 15.6641 54.3097 18.7756 54.3097C21.8866 54.3097 24.9292 53.233 27.3431 51.2775C28.2343 50.5548 29.0271 49.7247 29.7058 48.8123C28.5114 53.7408 24.0656 57.4133 18.775 57.4133Z" fill="white"/>
<path d="M78.7793 39.5081C78.7781 39.5007 78.5504 38.9313 78.4583 38.7177L68.3392 14.1864C67.0923 11.1639 64.8462 8.78174 62.0728 7.35413L61.1212 5.04639C60.5029 3.54858 59.4647 2.27966 58.1158 1.37634C56.767 0.476074 55.1984 0 53.5797 0C49.0814 0 45.4218 3.65967 45.4218 8.15796V10.8966C43.5651 13.2037 42.45 16.1316 42.45 19.3164V20.2228H37.5494V19.3164C37.5494 16.1316 36.4343 13.2037 34.5776 10.8966V8.15796C34.5776 3.65967 30.918 0 26.4197 0C24.801 0 23.2324 0.476074 21.8823 1.37756C20.5353 2.27966 19.4965 3.54858 18.8782 5.04639L17.9266 7.35413C15.1538 8.78174 12.9071 11.1639 11.6608 14.1864L9.06311 20.4834C8.81287 21.0901 9.10156 21.7841 9.70825 22.0343C10.3149 22.2845 11.0089 21.9958 11.2585 21.3892L13.8562 15.0922C15.5737 10.929 19.5935 8.23914 24.0967 8.23914C30.2045 8.23914 35.174 13.208 35.174 19.3164V37.0343C31.9604 31.286 25.8142 27.3901 18.7744 27.3901C14.3652 27.3901 10.307 28.9191 7.09961 31.4728L9.66309 25.2582C9.91333 24.6521 9.62402 23.9575 9.01794 23.7073C8.41187 23.457 7.71729 23.7463 7.46704 24.3524L1.54175 38.717C1.44897 38.9307 1.19568 39.563 1.18408 39.6033C0.419312 41.6467 0 43.858 0 46.1652C0 56.5173 8.42224 64.9396 18.775 64.9396C29.1272 64.9396 37.5494 56.5173 37.5494 46.1652V45.401H42.4506V46.1652C42.4506 56.5173 50.8728 64.9396 61.225 64.9396C71.5778 64.9396 80 56.5173 80 46.1652C80 43.822 79.5673 41.5784 78.7793 39.5081ZM24.0967 5.86365C23.0225 5.86365 21.9714 5.99182 20.9589 6.2323L21.0742 5.95215C21.5125 4.89014 22.2491 3.99048 23.2025 3.35205C24.1595 2.71301 25.2722 2.37488 26.4197 2.37488C29.6082 2.37488 32.2028 4.96948 32.2028 8.15796V8.58826C29.9469 6.87988 27.1387 5.86365 24.0967 5.86365ZM53.5803 2.37488C54.7278 2.37488 55.8398 2.71301 56.7957 3.35083C57.7509 3.99048 58.4875 4.89014 58.9258 5.95215L59.0411 6.2323C58.0286 5.99121 56.9775 5.86365 55.9027 5.86365C52.8613 5.86365 50.0531 6.87988 47.7972 8.58826V8.15796C47.7972 4.96948 50.3912 2.37488 53.5803 2.37488ZM44.826 19.3164C44.826 13.208 49.7949 8.23914 55.9033 8.23914C60.4065 8.23914 64.4263 10.929 66.1432 15.0922L72.9004 31.4728C69.693 28.9191 65.6342 27.3901 61.225 27.3901C54.1852 27.3901 48.0389 31.286 44.826 37.0337V19.3164ZM42.4506 22.5983V33.9996H37.5494V22.5983H42.4506ZM18.775 62.5647C9.73206 62.5647 2.37549 55.2081 2.37549 46.1652C2.37549 37.1222 9.73206 29.7656 18.775 29.7656C27.8174 29.7656 35.174 37.1222 35.174 46.1652C35.174 55.2081 27.8174 62.5647 18.775 62.5647ZM37.5494 43.0255V36.3745H42.4506V43.0255H37.5494ZM61.225 62.5647C52.1826 62.5647 44.826 55.2081 44.826 46.1652C44.826 37.1222 52.1826 29.7656 61.225 29.7656C70.2679 29.7656 77.6245 37.1222 77.6245 46.1652C77.6245 55.2081 70.2679 62.5647 61.225 62.5647Z" fill="white"/>
<path d="M70.4504 37.7417C69.9261 38.136 69.8218 38.8806 70.2161 39.4049C71.1292 40.6171 71.7749 41.9733 72.1362 43.4143C71.5491 45.7654 70.1947 47.8949 68.2971 49.4318C66.3055 51.0455 63.7939 51.9342 61.225 51.9342C58.6566 51.9342 56.1444 51.0455 54.1522 49.4318C52.2577 47.8973 50.9039 45.7721 50.3156 43.4253C51.5424 38.5431 55.9674 34.917 61.225 34.917C63.479 34.917 65.6537 35.5811 67.5128 36.8372C68.0566 37.2046 68.7952 37.0618 69.162 36.5179C69.5294 35.9741 69.3866 35.2362 68.8428 34.8688C66.5894 33.3466 63.9551 32.5415 61.225 32.5415C53.7128 32.5415 47.6013 38.653 47.6013 46.1652C47.6013 53.6774 53.7128 59.7888 61.225 59.7888C68.7372 59.7888 74.8486 53.6774 74.8486 46.1652C74.8486 43.1836 73.9026 40.3516 72.113 37.9761C71.7194 37.4518 70.9747 37.3468 70.4504 37.7417ZM61.225 57.4133C55.9351 57.4133 51.4886 53.7415 50.2948 48.8129C50.9729 49.7247 51.7657 50.5554 52.6575 51.2775C55.0714 53.233 58.114 54.3097 61.2256 54.3097C64.3365 54.3097 67.3792 53.233 69.7931 51.2775C70.6848 50.5548 71.4783 49.7241 72.1564 48.811C70.9625 53.7408 66.5161 57.4133 61.225 57.4133Z" fill="white"/>
</svg>
