<svg width="20" height="16" viewBox="0 0 20 16" fill="none" xmlns="http://www.w3.org/2000/svg">
<path d="M9.99966 6.42822C8.22454 6.42822 6.78552 7.86724 6.78552 9.64236C6.78552 11.4175 8.22454 12.8565 9.99966 12.8565C11.7748 12.8565 13.2138 11.4175 13.2138 9.64236C13.2116 7.86814 11.7739 6.43039 9.99966 6.42822ZM9.99966 10.7137C9.40795 10.7137 8.92828 10.2341 8.92828 9.64236C8.92828 9.05065 9.40795 8.57098 9.99966 8.57098C10.5914 8.57098 11.071 9.05065 11.071 9.64236C11.071 10.2341 10.5914 10.7137 9.99966 10.7137Z" fill="#989898"/>
<path d="M9.9997 9.99941C10.1969 9.99941 10.3568 9.83952 10.3568 9.64228C10.3568 9.44505 10.1969 9.28516 9.9997 9.28516C9.80247 9.28516 9.64258 9.44505 9.64258 9.64228C9.64258 9.83952 9.80247 9.99941 9.9997 9.99941Z" fill="#989898"/>
<path d="M19.8682 3.17842C18.6693 2.22168 15.3077 0 9.99972 0C4.69175 0 1.33012 2.22168 0.131244 3.17842C0.01607 3.27176 -0.0288149 3.42693 0.0187494 3.56733L1.20119 6.76111C1.2559 6.94125 1.44039 7.04861 1.62403 7.00718L5.0803 6.20935C5.24279 6.17183 5.35768 6.02685 5.35707 5.86009V4.26373C5.35833 3.92249 5.52081 3.60191 5.79527 3.39913C7.02616 2.54113 8.49989 2.10075 9.99972 2.14276C11.4994 2.10077 12.9729 2.54102 14.2038 3.39877C14.4785 3.60159 14.6411 3.92231 14.6424 4.26373V5.86009C14.6424 6.02632 14.7572 6.17052 14.9191 6.20793L18.3754 7.00575C18.5548 7.047 18.7362 6.9451 18.7943 6.7704L19.9843 3.55626C20.027 3.41843 19.9809 3.2685 19.8682 3.17842V3.17842Z" fill="#989898"/>
<path d="M15.5799 7.09367L14.7585 6.90439C14.2714 6.79356 13.9264 6.35967 13.9282 5.86016V4.2638C13.9283 4.14874 13.873 4.04065 13.7796 3.97346C12.6717 3.20627 11.3467 2.81496 9.99976 2.85708C8.65269 2.81503 7.32768 3.20634 6.21958 3.97346C6.12631 4.04073 6.07115 4.1488 6.07137 4.2638V5.86016C6.07312 6.35967 5.72812 6.79356 5.24105 6.90439L4.41966 7.09367L0.770189 12.8723C0.734057 12.9297 0.714753 12.996 0.714478 13.0638V15.3565C0.714478 15.5537 0.874368 15.7136 1.0716 15.7136H18.9279C19.1252 15.7136 19.285 15.5537 19.285 15.3565V13.0638C19.2846 12.9955 19.2651 12.9286 19.2286 12.8709L15.5799 7.09367ZM9.99976 13.5709C7.83017 13.5709 6.07137 11.8121 6.07137 9.64248C6.07137 7.47289 7.83017 5.71409 9.99976 5.71409C12.1694 5.71409 13.9282 7.47289 13.9282 9.64248C13.9256 11.811 12.1683 13.5683 9.99976 13.5709Z" fill="#989898"/>
</svg>
