<svg width="15" height="22" viewBox="0 0 15 22" fill="none" xmlns="http://www.w3.org/2000/svg">
<path d="M13.9581 3.73557C12.6342 1.45088 10.2827 0.0550679 7.66782 0.00172553C7.55619 -0.000575178 7.44384 -0.000575178 7.33217 0.00172553C4.71728 0.0550679 2.36579 1.45088 1.04186 3.73557C-0.311388 6.07087 -0.348412 8.87603 0.942798 11.2394L6.35215 21.1404C6.35458 21.1448 6.35701 21.1492 6.35952 21.1536C6.59752 21.5672 7.02388 21.8142 7.50008 21.8142C7.97624 21.8142 8.4026 21.5672 8.64055 21.1536C8.64306 21.1492 8.64549 21.1448 8.64792 21.1404L14.0573 11.2394C15.3484 8.87603 15.3114 6.07087 13.9581 3.73557V3.73557ZM7.49999 9.88456C5.8085 9.88456 4.43238 8.50843 4.43238 6.81694C4.43238 5.12545 5.8085 3.74933 7.49999 3.74933C9.19149 3.74933 10.5676 5.12545 10.5676 6.81694C10.5676 8.50843 9.19153 9.88456 7.49999 9.88456Z" fill="#989898"/>
</svg>
